<svg width="32" height="32" viewBox="0 0 32 32" fill="none" xmlns="http://www.w3.org/2000/svg">
<path d="M28 22.6667L23.6093 18.276C23.3593 18.0261 23.0202 17.8857 22.6667 17.8857C22.3131 17.8857 21.974 18.0261 21.724 18.276L20.9427 19.0574C20.6926 19.3073 20.3536 19.4478 20 19.4478C19.6464 19.4478 19.3074 19.3073 19.0573 19.0574L15.2187 15.2187C14.7186 14.7188 14.0404 14.4379 13.3333 14.4379C12.6262 14.4379 11.9481 14.7188 11.448 15.2187L4 22.6667M28 6.66671V25.3334C28 25.687 27.8595 26.0261 27.6095 26.2762C27.3594 26.5262 27.0203 26.6667 26.6667 26.6667H5.33333C4.97971 26.6667 4.64057 26.5262 4.39052 26.2762C4.14048 26.0261 4 25.687 4 25.3334V6.66671C4 6.31309 4.14048 5.97395 4.39052 5.7239C4.64057 5.47385 4.97971 5.33337 5.33333 5.33337H26.6667C27.0203 5.33337 27.3594 5.47385 27.6095 5.7239C27.8595 5.97395 28 6.31309 28 6.66671ZM21.3333 10.6667C21.3333 11.0203 21.1929 11.3595 20.9428 11.6095C20.6928 11.8596 20.3536 12 20 12C19.6464 12 19.3072 11.8596 19.0572 11.6095C18.8071 11.3595 18.6667 11.0203 18.6667 10.6667C18.6667 10.3131 18.8071 9.97395 19.0572 9.7239C19.3072 9.47385 19.6464 9.33337 20 9.33337C20.3536 9.33337 20.6928 9.47385 20.9428 9.7239C21.1929 9.97395 21.3333 10.3131 21.3333 10.6667Z" stroke="#959CA4" stroke-width="2" stroke-linecap="round" stroke-linejoin="round"/>
</svg>
